<svg width="24" height="24" viewBox="0 0 24 24" fill="none" xmlns="http://www.w3.org/2000/svg">
<path fill-rule="evenodd" clip-rule="evenodd" d="M4.00049 14.25C4.4147 14.25 4.75049 14.5858 4.75049 15V17C4.75049 17.6904 5.31013 18.25 6.00049 18.25H18.0005C18.6908 18.25 19.2505 17.6904 19.2505 17V15C19.2505 14.5858 19.5863 14.25 20.0005 14.25C20.4147 14.25 20.7505 14.5858 20.7505 15V17C20.7505 18.5188 19.5193 19.75 18.0005 19.75H6.00049C4.48171 19.75 3.25049 18.5188 3.25049 17V15C3.25049 14.5858 3.58627 14.25 4.00049 14.25Z" fill="#7A7A7A"/>
<path d="M17.0302 11.0322C17.3231 10.7393 17.3231 10.2645 17.0302 9.97157C16.7373 9.67868 16.2624 9.67868 15.9695 9.97157L12.7518 13.1893V5.49952C12.7518 5.08531 12.416 4.74952 12.0018 4.74952C11.5876 4.74952 11.2518 5.08531 11.2518 5.49952V13.1894L8.03204 9.96962C7.73915 9.67673 7.26427 9.67673 6.97138 9.96962C6.67849 10.2625 6.67849 10.7374 6.97138 11.0303L11.4714 15.5303C11.6121 15.671 11.8028 15.75 12.0018 15.75C12.2007 15.75 12.3914 15.671 12.5321 15.5303L17.0302 11.0322Z" fill="#7A7A7A"/>
</svg>
