<svg width="44" height="44" viewBox="0 0 44 44" fill="none" xmlns="http://www.w3.org/2000/svg">
<rect width="44" height="44" rx="10" fill="#252525"/>
<path d="M28.27 13.35C27.8 13.28 27.26 13.25 26.5 13.25H17.5C16.75 13.25 16.2 13.28 15.76 13.34C12.41 13.71 11.75 15.7 11.75 19V25C11.75 28.3 12.41 30.29 15.73 30.65C16.2 30.72 16.74 30.75 17.5 30.75H26.5C27.25 30.75 27.8 30.72 28.24 30.66C31.59 30.29 32.25 28.31 32.25 25V19C32.25 15.7 31.59 13.71 28.27 13.35ZM20.09 19C20.65 19 21.1 19.45 21.1 20C21.1 20.55 20.65 21 20.1 21C19.55 21 19.1 20.55 19.1 20C19.1 19.45 19.54 19 20.09 19ZM17.09 19C17.66 19 18.1 19.45 18.1 20C18.1 20.55 17.65 21 17.1 21C16.55 21 16.1 20.55 16.1 20C16.1 19.45 16.54 19 17.09 19ZM27 26.25H17.02C16.61 26.25 16.26 25.91 16.26 25.5C16.26 25.09 16.59 24.75 17 24.75H27C27.41 24.75 27.75 25.09 27.75 25.5C27.75 25.91 27.41 26.25 27 26.25ZM27 20.75H23.5C23.09 20.75 22.75 20.41 22.75 20C22.75 19.59 23.09 19.25 23.5 19.25H27C27.41 19.25 27.75 19.59 27.75 20C27.75 20.41 27.41 20.75 27 20.75Z" fill="white"/>
</svg>
