<svg width="40" height="40" viewBox="0 0 40 40" fill="none" xmlns="http://www.w3.org/2000/svg">
<rect width="40" height="40" rx="10" fill="#252525"/>
<path fill-rule="evenodd" clip-rule="evenodd" d="M9.25 21C9.25 15.0629 14.0629 10.25 20 10.25C25.9371 10.25 30.75 15.0629 30.75 21C30.75 26.9371 25.9371 31.75 20 31.75C14.0629 31.75 9.25 26.9371 9.25 21ZM19.9079 16.75C19.4187 16.75 18.9689 16.9548 18.6326 17.302C18.4486 17.492 18.3 17.7235 18.2012 17.984C18.0543 18.3713 17.6213 18.5662 17.234 18.4193C16.8467 18.2724 16.6518 17.8394 16.7987 17.4521C16.9696 17.0014 17.2286 16.5955 17.5552 16.2584C18.1539 15.6403 18.9846 15.25 19.9079 15.25C21.79 15.25 23.25 16.8456 23.25 18.7306C23.25 20.3594 22.1666 21.7632 20.6579 22.1232V23C20.6579 23.4142 20.3221 23.75 19.9079 23.75C19.4937 23.75 19.1579 23.4142 19.1579 23V21.9613C19.1579 21.2422 19.7273 20.7842 20.2544 20.6764C21.0802 20.5076 21.75 19.7233 21.75 18.7306C21.75 17.5995 20.8889 16.75 19.9079 16.75ZM21 26.25C21 26.8023 20.5522 27.25 20 27.25C19.4477 27.25 19 26.8023 19 26.25C19 25.6977 19.4477 25.25 20 25.25C20.5522 25.25 21 25.6977 21 26.25Z" fill="#7A7A7A"/>
</svg>
