<svg width="44" height="44" viewBox="0 0 44 44" fill="none" xmlns="http://www.w3.org/2000/svg">
<rect width="44" height="44" rx="10" fill="#252525"/>
<path d="M27 32.75H17C16.59 32.75 16.25 32.41 16.25 32C16.25 31.59 16.59 31.25 17 31.25H27C27.41 31.25 27.75 31.59 27.75 32C27.75 32.41 27.41 32.75 27 32.75Z" fill="white"/>
<path d="M28 12H16C13.79 12 12 13.79 12 16V25C12 27.21 13.79 29 16 29H28C30.21 29 32 27.21 32 25V16C32 13.79 30.21 12 28 12ZM19.99 17.32C20.55 17.32 21 17.77 21 18.32C21 18.87 20.55 19.32 20 19.32C19.45 19.32 19 18.87 19 18.32C19 17.77 19.44 17.32 19.99 17.32ZM16.84 17.32C17.4 17.32 17.85 17.77 17.85 18.32C17.85 18.87 17.4 19.32 16.85 19.32C16.3 19.32 15.85 18.87 15.85 18.32C15.85 17.77 16.28 17.32 16.84 17.32ZM27.26 24.86H16.76C16.34 24.86 16 24.52 16 24.11C16 23.7 16.33 23.36 16.74 23.36H27.27C27.68 23.36 28.02 23.7 28.02 24.11C28.02 24.52 27.68 24.86 27.26 24.86ZM27.26 19.07H23.58C23.17 19.07 22.83 18.73 22.83 18.32C22.83 17.91 23.17 17.57 23.58 17.57H27.26C27.67 17.57 28.01 17.91 28.01 18.32C28.01 18.73 27.68 19.07 27.26 19.07Z" fill="white"/>
</svg>
