<svg width="44" height="44" viewBox="0 0 44 44" fill="none" xmlns="http://www.w3.org/2000/svg">
<rect width="44" height="44" rx="10" fill="#252525"/>
<path d="M25.59 15H25.25V12C25.25 11.59 24.91 11.25 24.5 11.25C24.09 11.25 23.75 11.59 23.75 12V15H20.25V12C20.25 11.59 19.91 11.25 19.5 11.25C19.09 11.25 18.75 11.59 18.75 12V15H18.41C17.36 15 16.5 15.86 16.5 16.91V22C16.5 24.2 18 26 20.5 26H21.25V32C21.25 32.41 21.59 32.75 22 32.75C22.41 32.75 22.75 32.41 22.75 32V26H23.5C26 26 27.5 24.2 27.5 22V16.91C27.5 15.86 26.64 15 25.59 15Z" fill="white"/>
</svg>
