<svg width="44" height="44" viewBox="0 0 44 44" fill="none" xmlns="http://www.w3.org/2000/svg">
<rect width="44" height="44" rx="10" fill="#252525"/>
<path d="M25.0001 11.62H19.0001C15.8101 11.62 14.6201 12.81 14.6201 16V28C14.6201 31.19 15.8101 32.38 19.0001 32.38H25.0001C28.1901 32.38 29.3801 31.19 29.3801 28V16C29.3801 12.81 28.1901 11.62 25.0001 11.62ZM22.0001 16C22.8301 16 23.5001 16.67 23.5001 17.5C23.5001 18.33 22.8301 19 22.0001 19C21.1701 19 20.5001 18.33 20.5001 17.5C20.5001 16.67 21.1701 16 22.0001 16ZM22.0001 28C20.3401 28 19.0001 26.66 19.0001 25C19.0001 23.34 20.3401 22 22.0001 22C23.6601 22 25.0001 23.34 25.0001 25C25.0001 26.66 23.6601 28 22.0001 28Z" fill="white"/>
</svg>
