<svg width="44" height="44" viewBox="0 0 44 44" fill="none" xmlns="http://www.w3.org/2000/svg">
<rect width="44" height="44" rx="10" fill="#252525"/>
<path d="M27.56 12H16.41C13.98 12 12 13.98 12 16.41V22.91V23.11C12 25.55 13.98 27.52 16.41 27.52H20.25C20.8 27.52 21.25 27.97 21.25 28.52V29.49C21.25 30.04 20.8 30.49 20.25 30.49H17.83C17.42 30.49 17.08 30.83 17.08 31.24C17.08 31.65 17.41 32 17.83 32H26.18C26.59 32 26.93 31.66 26.93 31.25C26.93 30.84 26.59 30.5 26.18 30.5H23.76C23.21 30.5 22.76 30.05 22.76 29.5V28.53C22.76 27.98 23.21 27.53 23.76 27.53H27.57C30.01 27.53 31.98 25.55 31.98 23.12V22.92V16.42C31.97 13.98 29.99 12 27.56 12Z" fill="white"/>
</svg>
