<svg width="44" height="44" viewBox="0 0 44 44" fill="none" xmlns="http://www.w3.org/2000/svg">
<rect width="44" height="44" rx="10" fill="#252525"/>
<path d="M24.13 21.34C24.52 19.7 23.09 18.27 21.45 18.66C20.68 18.85 20.05 19.48 19.86 20.25C19.47 21.89 20.9 23.32 22.54 22.93C23.32 22.74 23.95 22.11 24.13 21.34Z" fill="white"/>
<path d="M16.02 27.97C15.84 27.97 15.65 27.9 15.51 27.77C13.57 25.97 12.46 23.43 12.46 20.79C12.46 15.53 16.74 11.25 22 11.25C27.26 11.25 31.54 15.53 31.54 20.79C31.54 23.45 30.47 25.91 28.53 27.74C28.23 28.02 27.75 28.01 27.47 27.71C27.19 27.41 27.2 26.93 27.5 26.65C29.14 25.11 30.04 23.04 30.04 20.8C30.04 16.37 26.43 12.76 22 12.76C17.57 12.76 13.96 16.37 13.96 20.8C13.96 23.06 14.87 25.14 16.53 26.68C16.83 26.96 16.85 27.44 16.57 27.74C16.42 27.89 16.22 27.97 16.02 27.97Z" fill="white"/>
<path d="M26 25.3001C25.82 25.3001 25.63 25.2301 25.49 25.1001C25.19 24.8201 25.17 24.3401 25.46 24.0401C26.29 23.1601 26.75 22.0001 26.75 20.8001C26.75 18.1801 24.62 16.0601 22.01 16.0601C19.4 16.0601 17.27 18.1901 17.27 20.8001C17.27 22.0101 17.73 23.1601 18.56 24.0401C18.84 24.3401 18.83 24.8201 18.53 25.1001C18.23 25.3901 17.75 25.3701 17.47 25.0701C16.38 23.9101 15.77 22.3901 15.77 20.8001C15.77 17.3601 18.57 14.5601 22.01 14.5601C25.45 14.5601 28.25 17.3601 28.25 20.8001C28.25 22.3901 27.65 23.9101 26.55 25.0701C26.4 25.2201 26.2 25.3001 26 25.3001Z" fill="white"/>
<path d="M20.2999 26.66L18.8599 28.45C17.7199 29.88 18.7399 32 20.5599 32H23.4299C25.2599 32 26.2799 29.88 25.1299 28.46L23.6899 26.67C22.8299 25.57 21.1699 25.57 20.2999 26.66Z" fill="white"/>
</svg>
